<?xml version="1.0" encoding="iso-8859-1"?>
<!-- Generator: Adobe Illustrator 18.0.0, SVG Export Plug-In . SVG Version: 6.00 Build 0)  -->
<!DOCTYPE svg PUBLIC "-//W3C//DTD SVG 1.1//EN" "http://www.w3.org/Graphics/SVG/1.1/DTD/svg11.dtd">
<svg version="1.1" xmlns="http://www.w3.org/2000/svg" xmlns:xlink="http://www.w3.org/1999/xlink" x="0px" y="0px"
	 viewBox="0 0 256 256" style="enable-background:new 0 0 256 256;" xml:space="preserve">
<g id="H">
	<g>
		<g>
			<path d="M221.04,217.318c-3.749-0.253-7.616-0.488-11.494-0.7c-3.637-0.198-7.43-0.299-11.272-0.299
				c-3.713,0-7.506,0.101-11.273,0.299c-3.976,0.21-7.909,0.445-11.693,0.7c-0.011,0.001-0.022,0.001-0.033,0.001
				c-0.132,0-0.26-0.053-0.354-0.146c-0.645-0.646-0.922-1.783-0.846-3.477c0.07-1.648,0.331-2.753,0.799-3.377
				c0.095-0.126,0.243-0.2,0.4-0.2c0.771,0,2.202-0.1,4.252-0.298c2.03-0.196,4.021-0.562,5.915-1.085
				c2.414-0.664,2.709-1.251,2.742-1.415c0.529-1.607,0.824-3.646,0.891-6.116c0.066-2.552,0.1-5.306,0.1-8.187v-38.8
				c0-0.033,0-0.065-0.046-0.104c-4.354-0.127-9.189-0.294-14.373-0.496c-5.096-0.199-10.237-0.3-15.28-0.3
				c-8.957,0-15.681,0.067-19.984,0.199c-4.219,0.133-7.033,0.267-8.367,0.398c-1.327,0.134-1.874,0.243-2.097,0.305l-0.052,41.197
				c0,2.612,0.033,4.863,0.099,6.884c0.063,2.014,0.293,3.686,0.68,4.972c0.101,0.249,0.627,0.829,2.858,1.464
				c1.824,0.522,3.813,0.887,5.91,1.083c2.112,0.197,3.576,0.298,4.353,0.298c0.157,0,0.306,0.074,0.4,0.2
				c0.464,0.619,0.726,1.724,0.799,3.377c0.072,1.693-0.204,2.83-0.845,3.476c-0.094,0.095-0.222,0.147-0.354,0.147
				c-0.011,0-0.022,0-0.033-0.001c-3.749-0.253-7.616-0.488-11.494-0.7c-3.637-0.198-7.43-0.299-11.273-0.299
				c-3.714,0-7.541,0.101-11.375,0.299c-4.027,0.209-7.994,0.444-11.792,0.7c-0.011,0.001-0.022,0.001-0.034,0.001
				c-0.132,0-0.26-0.053-0.354-0.146c-0.645-0.646-0.921-1.783-0.846-3.477c0.071-1.648,0.333-2.753,0.799-3.377
				c0.094-0.126,0.243-0.2,0.4-0.2c0.773,0,2.238-0.101,4.354-0.298c2.096-0.196,4.12-0.562,6.013-1.085
				c2.415-0.664,2.71-1.252,2.744-1.416c0.529-1.604,0.823-3.643,0.89-6.115c0.067-2.577,0.101-5.332,0.101-8.187v-82.199
				c0-2.851-0.034-5.64-0.101-8.288c-0.066-2.538-0.361-4.608-0.874-6.155c-0.073-0.396-0.497-1.005-2.728-1.468
				c-1.904-0.394-3.938-0.694-6.045-0.892c-2.116-0.198-3.581-0.298-4.354-0.298c-0.157,0-0.305-0.074-0.4-0.2
				c-0.467-0.621-0.729-1.726-0.8-3.378c-0.076-1.692,0.201-2.83,0.846-3.475c0.094-0.094,0.222-0.147,0.354-0.147
				c0.005,0,0.011,0,0.017,0c4.017,0.135,7.99,0.304,11.809,0.5c3.846,0.199,7.673,0.3,11.375,0.3c3.831,0,7.624-0.101,11.273-0.3
				c3.619-0.197,7.492-0.365,11.511-0.5c0.006,0,0.011,0,0.017,0c0.133,0,0.261,0.053,0.354,0.148
				c0.642,0.646,0.918,1.782,0.846,3.474c-0.074,1.657-0.336,2.762-0.801,3.379c-0.095,0.125-0.242,0.199-0.399,0.199
				c-0.776,0-2.24,0.1-4.353,0.298c-2.108,0.197-4.107,0.498-5.942,0.891c-2.084,0.447-2.689,1.045-2.83,1.469
				c-0.383,1.276-0.611,2.982-0.676,5.058c-0.066,2.088-0.099,4.373-0.099,6.985v36.484c0.009,0.006,0.019,0.012,0.031,0.02
				c4.763,0.133,9.655,0.266,14.682,0.396c5.002,0.132,10.313,0.199,15.788,0.199c4.68,0,9.756-0.067,15.087-0.199
				c5.315-0.13,10.146-0.262,14.491-0.394c0.108-0.123,0.131-0.177,0.132-0.18l-0.011-33.927c0-2.877-0.033-5.666-0.1-8.288
				c-0.066-2.536-0.361-4.606-0.875-6.155c-0.072-0.397-0.496-1.005-2.727-1.468c-1.905-0.395-3.906-0.695-5.946-0.893
				c-2.05-0.197-3.48-0.297-4.252-0.297c-0.157,0-0.305-0.074-0.399-0.199c-0.468-0.621-0.729-1.726-0.801-3.379
				c-0.075-1.692,0.201-2.83,0.847-3.475c0.094-0.094,0.221-0.147,0.354-0.147c0.006,0,0.011,0,0.017,0
				c4.019,0.135,7.958,0.304,11.71,0.5c3.779,0.199,7.572,0.3,11.273,0.3c3.831,0,7.624-0.101,11.272-0.3
				c3.619-0.197,7.492-0.365,11.511-0.5c0.006,0,0.011,0,0.017,0c0.133,0,0.261,0.053,0.354,0.148
				c0.642,0.646,0.918,1.782,0.846,3.474c-0.075,1.659-0.337,2.764-0.801,3.379c-0.095,0.125-0.242,0.199-0.399,0.199
				c-0.774,0-2.205,0.1-4.252,0.297c-2.039,0.197-4.006,0.498-5.844,0.892c-2.084,0.447-2.689,1.045-2.83,1.469
				c-0.517,1.547-0.811,3.617-0.874,6.155c-0.067,2.535-0.101,5.246-0.101,8.288v82.199c0,3.042,0.033,5.72,0.101,8.187
				c0.063,2.474,0.357,4.511,0.874,6.056c0.104,0.263,0.631,0.843,2.862,1.478c1.827,0.522,3.782,0.887,5.812,1.083
				c2.047,0.198,3.478,0.298,4.252,0.298c0.157,0,0.306,0.074,0.4,0.2c0.463,0.618,0.725,1.723,0.799,3.377
				c0.072,1.693-0.204,2.83-0.845,3.476c-0.094,0.095-0.222,0.147-0.354,0.147C221.063,217.319,221.051,217.319,221.04,217.318z"/>
			<path style="fill:#FFFFFF;" d="M221.073,87.019c0.531,0.535,0.766,1.569,0.7,3.1c-0.069,1.535-0.3,2.569-0.7,3.1
				c-0.8,0-2.234,0.1-4.3,0.3c-2.069,0.2-4.034,0.5-5.9,0.9c-1.868,0.4-2.935,1-3.2,1.8c-0.534,1.6-0.834,3.7-0.899,6.3
				c-0.069,2.6-0.101,5.369-0.101,8.3v82.2c0,2.935,0.031,5.669,0.101,8.2c0.065,2.534,0.365,4.601,0.899,6.2
				c0.266,0.669,1.332,1.269,3.2,1.8c1.866,0.534,3.831,0.9,5.9,1.101c2.065,0.199,3.5,0.3,4.3,0.3c0.4,0.534,0.631,1.568,0.7,3.1
				c0.065,1.534-0.169,2.565-0.7,3.101c-4-0.27-7.834-0.5-11.5-0.7c-3.669-0.2-7.435-0.3-11.3-0.3c-3.734,0-7.5,0.1-11.3,0.3
				c-3.801,0.2-7.7,0.431-11.7,0.7c-0.534-0.535-0.769-1.566-0.7-3.101c0.065-1.531,0.3-2.565,0.7-3.1c0.8,0,2.231-0.101,4.3-0.3
				c2.065-0.2,4.065-0.566,6-1.101c1.932-0.531,2.966-1.131,3.1-1.8c0.531-1.6,0.832-3.666,0.9-6.2c0.065-2.531,0.1-5.266,0.1-8.2
				v-38.8c0-0.266-0.134-0.466-0.399-0.6c-4.534-0.132-9.369-0.3-14.5-0.5c-5.135-0.2-10.234-0.3-15.3-0.3
				c-9.069,0-15.734,0.068-20,0.199c-4.27,0.135-7.069,0.27-8.4,0.4c-1.334,0.135-2.135,0.269-2.4,0.4
				c-0.134,0.134-0.199,0.269-0.199,0.399v38.8c0,0.4,0,0.801,0,1.2c0,0.4,0,0.8,0,1.2c0,2.534,0.031,4.834,0.1,6.9
				c0.065,2.068,0.3,3.769,0.7,5.1c0.266,0.669,1.331,1.269,3.2,1.8c1.865,0.534,3.865,0.9,6,1.101c2.131,0.199,3.6,0.3,4.399,0.3
				c0.4,0.534,0.632,1.568,0.7,3.1c0.065,1.534-0.169,2.565-0.7,3.101c-4-0.27-7.834-0.5-11.5-0.7c-3.669-0.2-7.435-0.3-11.3-0.3
				c-3.734,0-7.534,0.1-11.4,0.3c-3.868,0.2-7.8,0.431-11.8,0.7c-0.534-0.535-0.769-1.566-0.7-3.101
				c0.066-1.531,0.301-2.565,0.7-3.1c0.8,0,2.266-0.101,4.4-0.3c2.131-0.2,4.165-0.566,6.1-1.101c1.932-0.531,2.966-1.131,3.101-1.8
				c0.531-1.6,0.831-3.666,0.899-6.2c0.065-2.531,0.101-5.266,0.101-8.2v-82.2c0-2.931-0.035-5.7-0.101-8.3
				c-0.068-2.6-0.368-4.7-0.899-6.3c-0.135-0.8-1.169-1.4-3.101-1.8c-1.935-0.4-3.969-0.7-6.1-0.9c-2.135-0.2-3.601-0.3-4.4-0.3
				c-0.399-0.531-0.634-1.565-0.7-3.1c-0.068-1.531,0.166-2.565,0.7-3.1c4,0.135,7.932,0.3,11.8,0.5c3.866,0.2,7.666,0.3,11.4,0.3
				c3.865,0,7.631-0.1,11.3-0.3c3.666-0.2,7.5-0.365,11.5-0.5c0.531,0.535,0.766,1.569,0.7,3.1c-0.068,1.535-0.3,2.569-0.7,3.1
				c-0.8,0-2.269,0.1-4.399,0.3c-2.135,0.2-4.135,0.5-6,0.9c-1.869,0.4-2.935,1-3.2,1.8c-0.4,1.334-0.635,3.069-0.7,5.2
				c-0.068,2.134-0.1,4.469-0.1,7c0,0.4,0,0.8,0,1.2s0,0.8,0,1.2v34.2c0,0.135,0.131,0.27,0.399,0.4c4.8,0.135,9.731,0.269,14.8,0.4
				c5.066,0.134,10.332,0.199,15.801,0.199c4.665,0,9.699-0.065,15.1-0.199c5.4-0.132,10.3-0.266,14.7-0.4
				c0.266-0.266,0.399-0.466,0.399-0.6v-34c0-2.931-0.034-5.7-0.1-8.3c-0.068-2.6-0.369-4.7-0.9-6.3c-0.134-0.8-1.168-1.4-3.1-1.8
				c-1.935-0.4-3.935-0.7-6-0.9c-2.068-0.2-3.5-0.3-4.3-0.3c-0.4-0.531-0.635-1.565-0.7-3.1c-0.068-1.531,0.166-2.565,0.7-3.1
				c4,0.135,7.899,0.3,11.7,0.5c3.8,0.2,7.565,0.3,11.3,0.3c3.865,0,7.631-0.1,11.3-0.3
				C213.239,87.319,217.073,87.154,221.073,87.019 M221.073,86.019c-0.011,0-0.022,0-0.034,0.001
				c-4.044,0.136-7.921,0.305-11.521,0.501c-3.634,0.198-7.418,0.299-11.245,0.299c-3.698,0-7.482-0.101-11.247-0.299
				c-3.73-0.196-7.673-0.365-11.719-0.501c-0.011,0-0.022-0.001-0.034-0.001c-0.265,0-0.52,0.105-0.707,0.293
				c-0.75,0.75-1.074,2.01-0.992,3.851c0.076,1.78,0.362,2.943,0.901,3.657c0.189,0.251,0.485,0.398,0.799,0.398
				c0.761,0,2.175,0.099,4.204,0.295c2.023,0.196,4.006,0.494,5.893,0.884c2.133,0.441,2.315,0.98,2.316,0.986
				c0.009,0.051,0.021,0.101,0.037,0.15c0.498,1.501,0.784,3.524,0.85,6.011c0.066,2.617,0.099,5.401,0.099,8.274v33.618
				c-4.287,0.13-9.035,0.259-14.124,0.383c-5.328,0.132-10.4,0.199-15.075,0.199c-5.47,0-10.777-0.067-15.774-0.199
				c-4.867-0.127-9.607-0.255-14.226-0.384v-33.617v-1.2v-1.2c0-2.607,0.032-4.886,0.099-6.968c0.062-2.033,0.284-3.696,0.659-4.945
				c0.092-0.275,0.797-0.755,2.452-1.109c1.816-0.39,3.796-0.687,5.884-0.883c2.092-0.196,3.541-0.295,4.306-0.295
				c0.314,0,0.61-0.147,0.799-0.398c0.535-0.71,0.821-1.872,0.901-3.657c0.079-1.841-0.245-3.1-0.99-3.849
				c-0.188-0.189-0.444-0.295-0.709-0.295c-0.011,0-0.022,0-0.034,0.001c-4.044,0.136-7.921,0.305-11.521,0.501
				c-3.634,0.198-7.418,0.299-11.245,0.299c-3.699,0-7.517-0.101-11.349-0.299c-3.796-0.196-7.772-0.364-11.818-0.501
				c-0.011,0-0.022-0.001-0.034-0.001c-0.265,0-0.52,0.105-0.707,0.293c-0.75,0.75-1.074,2.01-0.992,3.851
				c0.077,1.78,0.363,2.942,0.9,3.656c0.189,0.251,0.485,0.399,0.799,0.399c0.762,0,2.211,0.099,4.307,0.295
				c2.089,0.196,4.104,0.494,5.99,0.884c2.133,0.442,2.316,0.981,2.317,0.987c0.009,0.051,0.021,0.1,0.037,0.149
				c0.498,1.499,0.783,3.522,0.849,6.011c0.067,2.642,0.1,5.427,0.1,8.274v82.2c0,2.851-0.034,5.601-0.1,8.174
				c-0.065,2.423-0.351,4.412-0.849,5.911c-0.013,0.038-0.023,0.077-0.031,0.117c0,0,0-0.001,0-0.001
				c-0.011,0-0.342,0.473-2.385,1.035c-1.866,0.515-3.86,0.875-5.928,1.069c-2.1,0.196-3.55,0.295-4.307,0.295
				c-0.315,0-0.612,0.149-0.801,0.401c-0.536,0.717-0.821,1.878-0.898,3.655c-0.082,1.84,0.242,3.1,0.992,3.85
				c0.188,0.189,0.443,0.294,0.708,0.294c0.022,0,0.045-0.001,0.067-0.002c3.796-0.256,7.76-0.491,11.784-0.699
				c3.825-0.198,7.643-0.298,11.349-0.298c3.834,0,7.617,0.1,11.245,0.298c3.876,0.212,7.74,0.447,11.487,0.699
				c0.022,0.002,0.045,0.002,0.067,0.002c0.266,0,0.521-0.106,0.71-0.295c0.744-0.75,1.068-2.008,0.99-3.848
				c-0.08-1.783-0.365-2.945-0.899-3.657c-0.189-0.252-0.485-0.4-0.8-0.4c-0.761,0-2.209-0.099-4.306-0.295
				c-2.066-0.194-4.024-0.553-5.818-1.066c-2.079-0.591-2.478-1.095-2.537-1.191c-0.363-1.237-0.578-2.844-0.639-4.779
				c-0.067-2.016-0.099-4.263-0.099-6.869v-1.2v-1.2v-38.385c0.294-0.054,0.811-0.13,1.7-0.22c1.32-0.13,4.124-0.263,8.331-0.396
				c4.298-0.132,11.017-0.199,19.968-0.199c5.037,0,10.171,0.101,15.261,0.299c5.011,0.196,9.697,0.358,13.938,0.484v38.417
				c0,2.876-0.033,5.626-0.099,8.174c-0.065,2.421-0.351,4.41-0.85,5.911c-0.013,0.039-0.023,0.078-0.031,0.118c0,0,0-0.001,0-0.001
				c-0.011,0-0.343,0.472-2.384,1.033c-1.868,0.516-3.829,0.875-5.831,1.069c-2.033,0.196-3.447,0.295-4.203,0.295
				c-0.315,0-0.611,0.148-0.8,0.4c-0.537,0.717-0.823,1.879-0.899,3.657c-0.082,1.839,0.242,3.099,0.992,3.85
				c0.188,0.189,0.443,0.294,0.708,0.294c0.022,0,0.045-0.001,0.067-0.002c3.781-0.255,7.713-0.49,11.686-0.699
				c3.759-0.198,7.543-0.298,11.247-0.298c3.834,0,7.617,0.1,11.245,0.298c3.876,0.212,7.74,0.447,11.487,0.699
				c0.022,0.002,0.045,0.002,0.067,0.002c0.266,0,0.521-0.106,0.71-0.295c0.744-0.75,1.068-2.008,0.99-3.848
				c-0.081-1.785-0.367-2.946-0.899-3.657c-0.189-0.252-0.485-0.4-0.8-0.4c-0.759,0-2.173-0.099-4.204-0.295
				c-1.999-0.193-3.924-0.552-5.721-1.067c-2.136-0.607-2.498-1.122-2.541-1.198c-0.492-1.493-0.772-3.467-0.834-5.867
				c-0.067-2.463-0.1-5.137-0.1-8.174v-82.2c0-3.038,0.033-5.744,0.1-8.274c0.063-2.49,0.348-4.511,0.848-6.01
				c0.101-0.305,0.806-0.784,2.461-1.139c1.82-0.39,3.767-0.687,5.787-0.883c2.026-0.196,3.44-0.295,4.204-0.295
				c0.314,0,0.61-0.147,0.799-0.398c0.534-0.708,0.82-1.87,0.901-3.657c0.079-1.842-0.245-3.101-0.99-3.85
				C221.594,86.125,221.339,86.019,221.073,86.019L221.073,86.019z"/>
		</g>
	</g>
</g>
<g id="T">
	<g>
		<g>
			<path style="fill:#A67C52;" d="M112.046,166.66c-3.684-0.248-7.365-0.472-10.94-0.666c-3.473-0.189-7.083-0.285-10.729-0.285
				c-3.523,0-7.166,0.096-10.825,0.285c-3.736,0.192-7.513,0.416-11.225,0.666c-0.011,0.001-0.022,0.001-0.034,0.001
				c-0.132,0-0.259-0.053-0.354-0.146c-0.62-0.62-0.886-1.616-0.813-3.044c0.068-1.381,0.319-2.343,0.766-2.94
				c0.095-0.126,0.243-0.2,0.4-0.2c0.745,0,2.139-0.095,4.142-0.283c1.999-0.188,3.923-0.534,5.72-1.03
				c2.344-0.646,2.572-1.222,2.594-1.331c0.503-1.528,0.783-3.466,0.847-5.816c0.063-2.431,0.095-5.053,0.095-7.792V49.771H58.204
				c-4.498,0-8.202,2.104-11.009,6.253c-2.871,4.242-5.023,9.627-6.398,16.007c-0.012,0.053-0.032,0.104-0.06,0.151
				c-0.481,0.804-1.493,1.195-3.094,1.195c-0.176,0.03-0.413,0.048-0.638,0.048c-0.703,0-1.318-0.172-1.829-0.513
				c-0.613-0.409-1.043-0.741-1.315-1.017c-0.118-0.119-0.168-0.289-0.134-0.452c1.011-4.936,1.906-10.113,2.66-15.39
				c0.748-5.231,1.452-10.799,2.092-16.548c0.021-0.184,0.141-0.341,0.313-0.41c0.42-0.167,0.891-0.252,1.398-0.252
				c0.368,0,0.763,0.045,1.176,0.133c0.923,0.198,1.667,0.436,2.212,0.707c1.093,0.486,2.702,1.022,4.764,1.583
				c2.042,0.557,3.824,0.84,5.294,0.84h72.724c1.479,0,3.422-0.315,5.773-0.936c2.378-0.625,4.146-1.193,5.256-1.687
				c1.443-0.72,2.003-0.804,2.297-0.804c0.46,0,0.968,0.141,1.555,0.432c0.153,0.076,0.257,0.224,0.275,0.393
				c0.63,5.683,1.365,11.249,2.187,16.542c0.821,5.319,1.749,10.499,2.756,15.396c0.033,0.165-0.018,0.335-0.137,0.454
				c-0.283,0.284-0.75,0.62-1.428,1.027c-0.556,0.333-1.194,0.5-1.9,0.5c-0.229,0-0.468-0.018-0.714-0.053c-0.01,0-0.02,0-0.029,0
				c-1.514,0-2.516-0.391-2.993-1.19c-0.03-0.05-0.051-0.104-0.062-0.161c-1.252-6.375-3.34-11.757-6.206-15.998
				c-2.81-4.149-6.514-6.253-11.009-6.253H98.873v94.307c0,2.889,0.031,5.438,0.095,7.792c0.061,2.352,0.34,4.288,0.831,5.757
				c0.077,0.192,0.516,0.768,2.708,1.392c1.733,0.496,3.592,0.843,5.528,1.029c1.938,0.188,3.299,0.283,4.045,0.283
				c0.158,0,0.306,0.074,0.4,0.2c0.443,0.592,0.693,1.554,0.766,2.939c0.07,1.43-0.196,2.425-0.812,3.044
				c-0.094,0.095-0.222,0.147-0.354,0.147C112.069,166.661,112.058,166.661,112.046,166.66z"/>
			<path style="fill:#FFFFFF;" d="M139.684,39.18c0.381,0,0.824,0.128,1.333,0.38c0.633,5.711,1.362,11.232,2.189,16.563
				c0.823,5.331,1.742,10.471,2.76,15.42c-0.256,0.256-0.699,0.571-1.332,0.952c-0.477,0.285-1.025,0.428-1.643,0.428
				c-0.206,0-0.421-0.016-0.643-0.048c-1.397,0-2.284-0.315-2.665-0.952c-1.271-6.473-3.364-11.866-6.282-16.182
				c-2.921-4.313-6.729-6.473-11.422-6.473H98.373v94.807c0,2.793,0.03,5.396,0.095,7.806c0.063,2.412,0.348,4.379,0.856,5.901
				c0.253,0.637,1.267,1.208,3.046,1.714c1.776,0.509,3.647,0.856,5.616,1.047c1.966,0.19,3.332,0.285,4.093,0.285
				c0.381,0.509,0.601,1.398,0.667,2.666c0.062,1.27-0.161,2.156-0.667,2.665c-3.808-0.256-7.458-0.477-10.947-0.666
				c-3.492-0.19-7.077-0.286-10.756-0.286c-3.555,0-7.172,0.096-10.851,0.286c-3.683,0.189-7.425,0.41-11.232,0.666
				c-0.509-0.509-0.732-1.396-0.667-2.665c0.063-1.268,0.286-2.157,0.667-2.666c0.762,0,2.157-0.095,4.188-0.285
				c2.028-0.19,3.965-0.538,5.806-1.047c1.838-0.506,2.823-1.077,2.951-1.714c0.505-1.522,0.791-3.489,0.856-5.901
				c0.062-2.409,0.095-5.013,0.095-7.806V49.27H58.204c-4.697,0-8.504,2.16-11.423,6.473c-2.921,4.316-5.078,9.709-6.473,16.182
				c-0.381,0.637-1.27,0.952-2.665,0.952c-0.223,0.032-0.436,0.048-0.638,0.048c-0.607,0-1.123-0.143-1.551-0.428
				c-0.571-0.381-0.984-0.696-1.237-0.952c1.014-4.95,1.904-10.09,2.665-15.42c0.762-5.331,1.458-10.852,2.094-16.563
				c0.362-0.144,0.767-0.217,1.213-0.217c0.334,0,0.691,0.041,1.072,0.122c0.886,0.19,1.585,0.413,2.094,0.666
				c1.143,0.509,2.761,1.047,4.855,1.618c2.094,0.571,3.902,0.857,5.426,0.857h72.724c1.523,0,3.489-0.315,5.901-0.952
				c2.409-0.633,4.188-1.205,5.331-1.713C138.604,39.436,139.303,39.18,139.684,39.18 M139.684,38.18
				c-0.562,0-1.322,0.259-2.54,0.866c-1.046,0.465-2.789,1.023-5.139,1.641c-2.311,0.61-4.211,0.919-5.647,0.919H53.635
				c-1.427,0-3.164-0.276-5.163-0.822c-2.04-0.556-3.625-1.083-4.711-1.567c-0.553-0.276-1.315-0.521-2.291-0.73
				c-0.448-0.096-0.879-0.144-1.282-0.144c-0.571,0-1.103,0.097-1.583,0.288c-0.343,0.137-0.583,0.451-0.624,0.818
				c-0.641,5.747-1.344,11.309-2.09,16.532c-0.752,5.265-1.645,10.433-2.655,15.361c-0.067,0.327,0.034,0.666,0.268,0.904
				c0.301,0.304,0.744,0.648,1.394,1.081c0.594,0.396,1.303,0.596,2.106,0.596c0.227,0,0.465-0.016,0.708-0.048
				c1.752-0.012,2.882-0.483,3.453-1.438c0.056-0.094,0.096-0.196,0.119-0.303c1.361-6.317,3.489-11.644,6.323-15.832
				c2.747-4.06,6.213-6.033,10.595-6.033h22.987v93.807c0,2.735-0.032,5.353-0.095,7.78c-0.062,2.301-0.334,4.189-0.806,5.612
				c-0.009,0.026-0.016,0.053-0.023,0.08c-0.057,0.076-0.435,0.487-2.245,0.985c-1.77,0.489-3.665,0.831-5.634,1.015
				c-1.988,0.186-3.366,0.281-4.095,0.281c-0.315,0-0.612,0.148-0.801,0.401c-0.509,0.68-0.792,1.732-0.865,3.216
				c-0.081,1.576,0.232,2.695,0.958,3.421c0.188,0.188,0.443,0.293,0.707,0.293c0.022,0,0.045-0.001,0.067-0.002
				c3.709-0.249,7.483-0.473,11.217-0.665c3.652-0.189,7.285-0.285,10.8-0.285c3.637,0,7.238,0.096,10.702,0.285
				c3.574,0.194,7.253,0.418,10.934,0.665c0.022,0.002,0.045,0.002,0.067,0.002c0.265,0,0.521-0.106,0.709-0.295
				c0.72-0.725,1.033-1.843,0.956-3.419c-0.078-1.492-0.36-2.543-0.865-3.216c-0.189-0.252-0.485-0.401-0.801-0.401
				c-0.73,0-2.075-0.094-3.997-0.281c-1.905-0.184-3.734-0.525-5.437-1.013c-1.995-0.567-2.347-1.047-2.388-1.114
				c-0.466-1.417-0.731-3.289-0.79-5.566c-0.064-2.351-0.095-4.896-0.095-7.78V50.27h22.606c4.379,0,7.845,1.974,10.594,6.033
				c2.828,4.184,4.89,9.505,6.129,15.814c0.022,0.113,0.064,0.222,0.123,0.321c0.571,0.955,1.701,1.426,3.453,1.438
				c0.243,0.032,0.483,0.048,0.713,0.048c0.797,0,1.522-0.192,2.155-0.57c0.725-0.437,1.209-0.787,1.526-1.104
				c0.238-0.238,0.34-0.579,0.272-0.908c-1.006-4.892-1.931-10.063-2.751-15.372c-0.82-5.285-1.555-10.843-2.184-16.52
				c-0.037-0.338-0.245-0.634-0.549-0.786C140.804,38.339,140.223,38.18,139.684,38.18L139.684,38.18z"/>
		</g>
	</g>
</g>
</svg>
