<?xml version="1.0" encoding="UTF-8" standalone="no" ?>
<!DOCTYPE svg PUBLIC "-//W3C//DTD SVG 1.1//EN" "http://www.w3.org/Graphics/SVG/1.1/DTD/svg11.dtd">
<svg xmlns="http://www.w3.org/2000/svg" xmlns:xlink="http://www.w3.org/1999/xlink" version="1.1" width="111" height="122" viewBox="0 0 111 122" xml:space="preserve">
<desc>Created with Fabric.js 5.2.4</desc>
<defs>
</defs>
<g transform="matrix(1 0 0 1 55.5 61)" id="b22feb1e-ce83-4ea6-a794-02bff7211f26"  >
<rect style="stroke: none; stroke-width: 1; stroke-dasharray: none; stroke-linecap: butt; stroke-dashoffset: 0; stroke-linejoin: miter; stroke-miterlimit: 4; fill: rgb(255,255,255); fill-rule: nonzero; opacity: 1; visibility: hidden;" vector-effect="non-scaling-stroke"  x="-55.5" y="-61" rx="0" ry="0" width="111" height="122" />
</g>
<g transform="matrix(Infinity NaN NaN Infinity 0 0)" id="d7b2acbc-37da-44e0-a4c1-c679537a60f6"  >
</g>
<g transform="matrix(1 0 0 1 55.5 61)" id="20637244-d1db-4dee-8b02-d86df48905da"  >
<path style="stroke: rgb(0,0,0); stroke-width: 0; stroke-dasharray: none; stroke-linecap: butt; stroke-dashoffset: 0; stroke-linejoin: miter; stroke-miterlimit: 4; fill: rgb(255,255,255); fill-rule: nonzero; opacity: 1;" vector-effect="non-scaling-stroke"  transform=" translate(-55.96, -61.44)" d="M 46.4 63.92 C 46.11244557689526 66.97506867657788 46.22675338028242 70.05465537959675 46.739999999999995 73.08 C 47.024021399664676 75.13413445801281 47.9396035743764 77.04916893031063 49.36 78.56 C 50.646173237653116 79.77987301808606 52.36842300464805 80.43202198843352 54.14 80.37 C 55.23886383582932 80.31247728835658 56.31128726397378 80.01192549957725 57.28 79.49000000000001 C 58.80883056607542 78.59450227325335 60.08802718665268 77.32906045504788 61 75.81 C 62.001385284257246 74.23662922138138 62.77568881140573 72.52979492458014 63.3 70.74000000000001 L 65.8 41.66000000000001 C 64.68838124903698 41.42732005294122 63.55570955981691 41.31003156441251 62.41999999999999 41.31 C 59.36493908345003 41.18146070686634 56.36233901926384 42.133936434774455 53.94 44 C 51.59893993720302 46.047549206538804 49.86869568112158 48.70174389536773 48.94 51.67000000000001 C 47.63753541264751 55.6630255480916 46.78229938806019 59.78828166668926 46.39 63.97 Z M 65.57 85.85 C 64.55640426330196 87.17712974275601 63.39191657831193 88.38188789523848 62.099999999999994 89.44 C 58.25269114712641 92.5138327464802 53.44276401291574 94.12894819066288 48.52 94 C 44.484277101756255 94.07257847371618 40.54433758870896 92.76749555533884 37.35 90.3 C 34.004621018974746 87.58036745158898 31.540776564846222 83.92984085218104 30.270000000000007 79.81 C 28.676184094220424 74.67392545918709 28.182125213156187 69.25972158324866 28.82 63.920000000000016 C 29.541906051810344 57.18875238847932 31.519398008088935 50.652513966954686 34.64999999999999 44.65000000000003 C 37.27919453146422 39.574692159717515 41.12344908368326 35.22886373383986 45.83999999999998 32.000000000000014 C 50.32780496749175 29.013842378523883 55.609766947997855 27.44597767454779 60.999999999999986 27.499999999999996 Q 69 27.5 73.5 29.740000000000002 C 76.49400658204094 31.243487522263617 79.40185306388747 32.91274497452912 82.21000000000001 34.73999999999999 L 78.87 74 C 78.64121210426299 75.23953121975285 78.64121210426299 76.51046878024715 78.87 77.75 C 79.06898982696622 78.64114277002375 79.50820576228718 79.4607819564101 80.14 80.12 C 80.7103134256468 80.71083624081223 81.42322357265729 81.14478154768818 82.21 81.38000000000001 C 85.52340555759983 82.39373500879735 89.11731935961005 81.23170287948071 91.21 78.47000000000001 C 93.33409676137255 75.8359434934731 94.89312800465697 72.79276897055549 95.78999999999999 69.53000000000002 C 97.03459303336973 65.40126830207682 97.70751983448909 61.12145384695762 97.78999999999999 56.81000000000001 Q 98.42999999999999 43.670000000000016 94.47 33.610000000000014 C 92.02174992846902 27.145990429201426 87.55844329578088 21.641362453301674 81.73999999999998 17.909999999999997 Q 73 12.22 59.17 12.23 Q 45.86 12.23 36.34 19 C 29.8444052130927 23.653465271591237 24.705018336042627 29.952579476169056 21.44999999999999 37.250000000000014 C 17.817582214721 45.34463760326716 15.780381072521052 54.063858491882854 15.449999999999985 62.93 C 15.004967484770546 69.83002882499761 15.642685309083003 76.75719651448689 17.34 83.46000000000001 C 18.696641450900067 88.76494798199371 21.26374328637366 93.68351509876115 24.839999999999996 97.83000000000001 C 28.30790548241495 101.66691739558304 32.68067281630079 104.5752201978373 37.56 106.29000000000002 C 43.16658819422266 108.22718530649773 49.06898791179333 109.16804948166094 54.999999999999986 109.07 C 58.94097577767229 109.05691842701376 62.87068211866764 108.64820216648398 66.73000000000002 107.85 C 70.1911293574378 107.20276597449933 73.58784200309336 106.24900922177832 76.88 105 L 79.46 117 C 75.89605262946256 119.17420496820549 71.96483083729555 120.67891399900043 67.86 121.44 C 63.54536511167472 122.3767749023818 59.14507384830213 122.86271719727061 54.730000000000004 122.88999999999999 Q 36.81999999999999 122.89 24.33 116.26 C 16.045164452902068 111.84384679973476 9.45302210845588 104.81222829899217 5.580000000000002 96.26 Q -0.65 82.95 0.08 62.93 C 0.3648957363398025 54.38630727980488 2.026238690641738 45.944523975425106 4.999999999999988 37.93000000000002 C 7.728695376807787 30.5630802708652 11.823748165646723 23.777574407006128 17.069999999999972 17.930000000000014 C 22.200969735003213 12.262726272747063 28.484899148242754 7.758618429616607 35.499999999999964 4.72000000000002 C 43.05590220113914 1.4924474172717326 51.2044401784447 -0.11545806988888607 59.419999999999945 7.993605777301127e-15 Q 76.82 0 88.77000000000001 7.11 C 96.6185058301678 11.69123962773312 102.86777992866338 18.575914779818753 106.67000000000002 26.830000000000023 Q 112.55000000000001 39.449999999999996 111.86000000000001 55.98 C 111.68616112773202 60.71712913824281 110.98176152973 65.41983502585634 109.76000000000002 70 C 108.62972462999433 74.3755276758299 106.79218893007881 78.53700558446212 104.32000000000001 82.32 C 101.9559171362333 85.90132774628123 98.79730916813877 88.88883019064363 95.09 91.05 C 90.97049647351598 93.29731155674472 86.33113124356773 94.41834776472479 81.64 94.3 C 76.48715911884263 94.45399457361786 71.50240826014443 92.45792064691531 67.88 88.78999999999999 C 66.99524466363344 87.88385108276766 66.21993749457151 86.8769586554145 65.57 85.78999999999999 Z" stroke-linecap="round" />
</g>
</svg>